<svg width="24" height="24" viewBox="0 0 24 24" fill="none" xmlns="http://www.w3.org/2000/svg">
<g opacity="0.5">
<mask id="path-1-inside-1_1_2093" fill="white">
<path d="M16.375 2H7.625C6.17833 2 5 3.12111 5 4.5V19.5C5 20.8789 6.17833 22 7.625 22H16.375C17.8217 22 19 20.8789 19 19.5V4.5C19 3.12111 17.8217 2 16.375 2ZM17.25 20.2119H6.75V4.5C6.75 4.04 7.14317 3.66667 7.625 3.66667H16.375C16.8568 3.66667 17.25 4.04 17.25 4.5V20.2119Z"/>
</mask>
<path d="M17.25 20.2119V22.2119H19.25V20.2119H17.25ZM6.75 20.2119H4.75V22.2119H6.75V20.2119ZM16.375 0H7.625V4H16.375V0ZM7.625 0C5.16743 0 3 1.92515 3 4.5H7C7 4.31708 7.18924 4 7.625 4V0ZM3 4.5V19.5H7V4.5H3ZM3 19.5C3 22.0749 5.16743 24 7.625 24V20C7.18924 20 7 19.6829 7 19.5H3ZM7.625 24H16.375V20H7.625V24ZM16.375 24C18.8326 24 21 22.0749 21 19.5H17C17 19.6829 16.8108 20 16.375 20V24ZM21 19.5V4.5H17V19.5H21ZM21 4.5C21 1.92515 18.8326 0 16.375 0V4C16.8108 4 17 4.31708 17 4.5H21ZM17.25 18.2119H6.75V22.2119H17.25V18.2119ZM8.75 20.2119V4.5H4.75V20.2119H8.75ZM8.75 4.5C8.75 5.23709 8.15288 5.66667 7.625 5.66667V1.66667C6.13345 1.66667 4.75 2.84291 4.75 4.5H8.75ZM7.625 5.66667H16.375V1.66667H7.625V5.66667ZM16.375 5.66667C15.8471 5.66667 15.25 5.23709 15.25 4.5H19.25C19.25 2.84291 17.8666 1.66667 16.375 1.66667V5.66667ZM15.25 4.5V20.2119H19.25V4.5H15.25Z" fill="black" mask="url(#path-1-inside-1_1_2093)"/>
<rect x="11" y="16" width="2" height="2" rx="1" fill="black"/>
</g>
</svg>
